<svg width="36" height="44" viewBox="0 0 36 44" fill="none" xmlns="http://www.w3.org/2000/svg">
<path d="M18 44C19.0609 44 20.0783 43.5786 20.8285 42.8284C21.5787 42.0783 22.0001 41.0609 22.0001 40H13.9999C13.9999 41.0609 14.4213 42.0783 15.1715 42.8284C15.9217 43.5786 16.9391 44 18 44ZM1.99962 36H34.0004C34.3959 35.9999 34.7825 35.8826 35.1113 35.6628C35.4401 35.443 35.6964 35.1307 35.8478 34.7653C35.9991 34.3999 36.0387 33.9978 35.9616 33.6099C35.8845 33.222 35.694 32.8657 35.4144 32.586L32.0003 29.172V18C31.9939 14.637 30.7781 11.3885 28.575 8.84758C26.3718 6.30668 23.3283 4.64289 20 4.16V2C20 1.46957 19.7893 0.960859 19.4142 0.585786C19.0392 0.210714 18.5304 0 18 0C17.4696 0 16.9608 0.210714 16.5858 0.585786C16.2107 0.960859 16 1.46957 16 2V4.16C12.6717 4.64289 9.62818 6.30668 7.42503 8.84758C5.22188 11.3885 4.0061 14.637 3.99967 18V29.172L0.585588 32.586C0.305962 32.8657 0.115545 33.222 0.0384079 33.6099C-0.0387291 33.9978 0.000877921 34.3999 0.152222 34.7653C0.303565 35.1307 0.55985 35.443 0.888678 35.6628C1.21751 35.8826 1.60411 35.9999 1.99962 36V36ZM7.41375 31.414C7.78886 31.039 7.99965 30.5304 7.99976 30V18C7.99976 15.3478 9.05336 12.8043 10.9288 10.9289C12.8042 9.05357 15.3478 8 18 8C20.6522 8 23.1958 9.05357 25.0712 10.9289C26.9466 12.8043 28.0002 15.3478 28.0002 18V30C28.0004 30.5304 28.2111 31.039 28.5863 31.414L29.1723 32H6.82774L7.41375 31.414Z" fill="black"/>
</svg>
